<?xml version="1.0" standalone="no"?><!DOCTYPE svg PUBLIC "-//W3C//DTD SVG 1.1//EN" "http://www.w3.org/Graphics/SVG/1.1/DTD/svg11.dtd"><svg t="1546508487680" class="icon" style="" viewBox="0 0 1024 1024" version="1.1" xmlns="http://www.w3.org/2000/svg" p-id="39992" xmlns:xlink="http://www.w3.org/1999/xlink" width="32" height="32"><defs><style type="text/css"></style></defs><path d="M680.453 64H343.547a32.67 32.67 0 0 0-30.993 22.338L277.333 192H96c-17.673 0-32 14.327-32 32s14.327 32 32 32h832c17.673 0 32-14.327 32-32s-14.327-32-32-32H746.667l-35.22-105.662A32.672 32.672 0 0 0 680.453 64zM344.795 192l21.333-64h291.743l21.333 64H344.795zM800 320c-17.673 0-32 14.327-32 32v476.831C768 865.927 737.927 896 700.831 896H323.169C286.073 896 256 865.927 256 828.831V352c0-17.673-14.327-32-32-32s-32 14.327-32 32v488.293C192 906.405 245.595 960 311.707 960h400.585C778.405 960 832 906.405 832 840.293V352c0-17.673-14.327-32-32-32z" p-id="39993"></path><path d="M352 320c-17.673 0-32 14.327-32 32v448c0 17.673 14.327 32 32 32 17.673 0 32-14.327 32-32V352c0-17.673-14.327-32-32-32zM512 320c-17.673 0-32 14.327-32 32v448c0 17.673 14.327 32 32 32 17.673 0 32-14.327 32-32V352c0-17.673-14.327-32-32-32zM672 320c-17.673 0-32 14.327-32 32v448c0 17.673 14.327 32 32 32 17.673 0 32-14.327 32-32V352c0-17.673-14.327-32-32-32z" p-id="39994"></path></svg>