<?xml version="1.0" standalone="no"?><!DOCTYPE svg PUBLIC "-//W3C//DTD SVG 1.1//EN" "http://www.w3.org/Graphics/SVG/1.1/DTD/svg11.dtd"><svg t="1546508564895" class="icon" style="" viewBox="0 0 1024 1024" version="1.1" xmlns="http://www.w3.org/2000/svg" p-id="40569" xmlns:xlink="http://www.w3.org/1999/xlink" width="32" height="32"><defs><style type="text/css"></style></defs><path d="M505.046634 388.622018l107.71321 107.71321c0-3.474125 0-3.474125 0-6.949272 0-59.069327-45.169759-104.239086-104.239086-104.239086C508.521782 388.622018 508.521782 388.622018 505.046634 388.622018zM355.63779 416.419108l52.119031 52.120055c0 10.42442 0 17.373693 0 24.322965 0 59.068304 45.169759 104.238063 104.239086 104.238063 6.949272 0 13.898545 0 24.321942-3.475148l52.119031 52.120055c-24.321942 13.898545-48.644907 20.847817-76.441996 20.847817-97.289814 0-173.730787-76.441996-173.730787-173.730787C338.26512 465.064015 345.214393 440.742073 355.63779 416.419108zM164.534334 225.315652l79.916121 79.916121 13.898545 13.898545c-59.068304 45.169759-104.239086 104.238063-128.561028 173.730787 59.068304 152.882969 208.477148 260.59618 382.208958 260.59618 52.119031 0 104.239086-10.42442 152.882969-27.79709l13.898545 13.898545 100.763938 100.763938 45.169759-45.169759-615.008049-615.008049L164.534334 225.315652zM511.995907 319.130318c97.289814 0 173.730787 76.441996 173.730787 173.730787 0 20.847817-3.475148 45.169759-13.898545 62.543452l100.763938 100.763938c52.119031-45.170782 93.814666-100.763938 118.137631-163.30739-59.068304-152.883993-208.477148-260.597203-382.208958-260.597203-48.644907 0-93.814666 10.423397-138.985448 24.321942l76.441996 76.441996C466.826148 322.604442 491.14809 319.130318 511.995907 319.130318z" p-id="40570"></path></svg>