<?xml version="1.0" standalone="no"?><!DOCTYPE svg PUBLIC "-//W3C//DTD SVG 1.1//EN" "http://www.w3.org/Graphics/SVG/1.1/DTD/svg11.dtd"><svg t="1546508414086" class="icon" style="" viewBox="0 0 1024 1024" version="1.1" xmlns="http://www.w3.org/2000/svg" p-id="39383" xmlns:xlink="http://www.w3.org/1999/xlink" width="32" height="32"><defs><style type="text/css"></style></defs><path d="M881.1 393.1c-17.6 0-31.7 14.3-31.7 31.7v379.9c0 26.3-21.4 47.7-47.7 47.7H213.5c-26.3 0-47.7-21.4-47.7-47.7V216.5c0-26.3 21.4-47.7 47.7-47.7h379.9c17.6 0 31.7-14.3 31.7-31.7 0-17.6-14.3-31.7-31.7-31.7H213.5c-61.2 0-111.1 49.9-111.1 111.1v588.1c0 61.3 49.9 111.2 111.1 111.2h588.2c61.3 0 111.1-49.9 111.1-111.1V424.9c0.1-17.6-14.2-31.8-31.7-31.8z m-395.9 140c6.2 6.2 14.4 9.3 22.5 9.3s16.2-3.1 22.5-9.3l373.5-373.5c12.4-12.4 12.4-32.5 0-44.9-12.4-12.4-32.5-12.4-44.9 0L485.2 488.2c-12.5 12.4-12.5 32.5 0 44.9z m0 0" p-id="39384"></path></svg>