<?xml version="1.0" standalone="no"?><!DOCTYPE svg PUBLIC "-//W3C//DTD SVG 1.1//EN" "http://www.w3.org/Graphics/SVG/1.1/DTD/svg11.dtd"><svg t="1558668055395" class="icon" style="" viewBox="0 0 1024 1024" version="1.1" xmlns="http://www.w3.org/2000/svg" p-id="3110" xmlns:xlink="http://www.w3.org/1999/xlink" width="48" height="48"><defs><style type="text/css"></style></defs><path d="M914.181742 251.621027L672.174208 10.295205A34.085568 34.085568 0 0 0 645.587465 0.069535H134.303944a34.085568 34.085568 0 0 0-34.085569 34.085568v954.395906a34.085568 34.085568 0 0 0 34.085569 34.085568h755.336188a34.085568 34.085568 0 0 0 34.085569-34.085568V272.754079a34.085568 34.085568 0 0 0-9.543959-21.133052z m-92.712746 3.408557H666.720517V100.962816zM168.389512 954.465441V68.240671h430.159869v220.874481a34.085568 34.085568 0 0 0 34.085568 34.085568h222.919615V954.465441z" p-id="3111"></path><path d="M713.758601 545.438624H548.10274V379.782763a34.085568 34.085568 0 0 0-68.171136 0V545.438624H304.731784a34.085568 34.085568 0 0 0-34.085568 34.085568 33.403857 33.403857 0 0 0 4.771979 16.361073 34.085568 34.085568 0 0 0 31.358723 21.133052h170.427841v170.42784a34.085568 34.085568 0 1 0 68.171136 0V618.38174h170.42784a34.085568 34.085568 0 0 0 34.085568-34.085568 33.403857 33.403857 0 0 0-4.771979-16.361073A34.085568 34.085568 0 0 0 713.758601 545.438624z" p-id="3112"></path></svg>